<svg xmlns="http://www.w3.org/2000/svg" viewBox="0 0 800 500" preserveAspectRatio="xMidYMid slice">
  <defs>
    <linearGradient id="g" x1="0" y1="0" x2="0" y2="1">
      <stop offset="0%" stop-color="#c2603a"/><stop offset="60%" stop-color="#8c3f25"/><stop offset="100%" stop-color="#3d1a0f"/>
    </linearGradient>
  </defs>
  <rect width="800" height="500" fill="url(#g)"/>
  <rect x="100" y="300" width="70" height="140" fill="#d4b07a"/>
  <rect x="180" y="250" width="90" height="190" fill="#b88a4a"/>
  <rect x="280" y="320" width="60" height="120" fill="#d4b07a"/>
  <rect x="350" y="200" width="100" height="240" fill="#b88a4a"/>
  <polygon points="400,150 350,200 450,200" fill="#7a2f1a"/>
  <rect x="460" y="280" width="80" height="160" fill="#d4b07a"/>
  <rect x="550" y="230" width="90" height="210" fill="#b88a4a"/>
  <rect x="650" y="320" width="60" height="120" fill="#d4b07a"/>
  <g fill="#2a1008">
    <rect x="115" y="320" width="10" height="15"/><rect x="145" y="320" width="10" height="15"/>
    <rect x="115" y="360" width="10" height="15"/><rect x="145" y="360" width="10" height="15"/>
    <rect x="200" y="280" width="12" height="18"/><rect x="240" y="280" width="12" height="18"/>
    <rect x="370" y="230" width="15" height="22"/><rect x="415" y="230" width="15" height="22"/>
    <rect x="370" y="280" width="15" height="22"/><rect x="415" y="280" width="15" height="22"/>
    <rect x="370" y="330" width="15" height="22"/><rect x="415" y="330" width="15" height="22"/>
  </g>
  <rect x="0" y="440" width="800" height="60" fill="#2c160c"/>
  <text x="400" y="475" text-anchor="middle" font-family="Georgia,serif" font-size="22" fill="#faf8f4" opacity=".85" font-style="italic">Nepal City &amp; Bazaar</text>
</svg>
